<svg width="32" height="32" viewBox="0 0 32 32" fill="none" xmlns="http://www.w3.org/2000/svg">
<path d="M29 17.5001H5V6.25008C4.99884 5.82641 5.08173 5.40672 5.24386 5.01531C5.406 4.62389 5.64416 4.26852 5.94456 3.96977L5.96956 3.94477C6.44035 3.47467 7.0448 3.16138 7.70032 3.04771C8.35584 2.93403 9.03048 3.02551 9.63206 3.30964C9.06392 4.25426 8.82777 5.36167 8.96115 6.45588C9.09452 7.55009 9.58977 8.56835 10.3682 9.34883L11.0526 10.0333L9.79281 11.2931L11.2069 12.7073L12.4668 11.4475L19.4473 4.46702L20.7071 3.20721L19.2929 1.79302L18.0331 3.05283L17.3486 2.36839C16.5292 1.55122 15.449 1.04749 14.2962 0.944977C13.1435 0.842461 11.9914 1.14766 11.0406 1.80739C10.0379 1.17421 8.84979 0.900866 7.67128 1.03225C6.49277 1.16364 5.39399 1.69195 4.55544 2.53039L4.53044 2.55539C4.04371 3.03945 3.65783 3.61524 3.39513 4.24944C3.13243 4.88363 2.99813 5.56363 3 6.25008V17.5001H1V19.5001H3V21.4188C2.99996 21.5801 3.02596 21.7402 3.077 21.8931L4.9375 27.4744C5.03679 27.7732 5.2277 28.0331 5.48313 28.2173C5.73855 28.4014 6.0455 28.5003 6.36038 28.5001H7.16663L6.4375 31.0001H8.52081L9.25 28.5001H22.2563L23.0063 31.0001H25.0938L24.3438 28.5001H25.6394C25.9543 28.5004 26.2613 28.4015 26.5168 28.2173C26.7723 28.0332 26.9632 27.7732 27.0625 27.4744L28.9229 21.8931C28.9739 21.7402 29 21.5801 29 21.4188V19.5001H31V17.5001H29ZM11.7825 3.78258C12.3335 3.23278 13.0801 2.92401 13.8585 2.92401C14.6369 2.92401 15.3834 3.23278 15.9344 3.78258L16.6188 4.46702L12.4669 8.61883L11.7825 7.93452C11.2327 7.38351 10.924 6.63692 10.924 5.85855C10.924 5.08018 11.2327 4.33359 11.7825 3.78258ZM27 21.3376L25.2793 26.5001H6.72075L5 21.3376V19.5001H27V21.3376Z" fill="#070707"/>
</svg>
