<svg width="14" height="14" viewBox="0 0 14 14" fill="none" xmlns="http://www.w3.org/2000/svg">
<path d="M7 0C9.79598 0 11.1942 -0.000127585 12.2012 0.666016C12.6509 0.963558 13.0364 1.34915 13.334 1.79883C14.0001 2.80583 14 4.20402 14 7C14 9.79598 14.0001 11.1942 13.334 12.2012C13.0364 12.6509 12.6509 13.0364 12.2012 13.334C11.1942 14.0001 9.79598 14 7 14C4.20402 14 2.80583 14.0001 1.79883 13.334C1.34915 13.0364 0.963558 12.6509 0.666016 12.2012C-0.000127585 11.1942 0 9.79598 0 7C0 4.20402 -0.000127693 2.80583 0.666016 1.79883C0.963558 1.34915 1.34915 0.963558 1.79883 0.666016C2.80583 -0.000127693 4.20402 0 7 0ZM7 3.37598C4.99853 3.37598 3.37598 4.99853 3.37598 7C3.376 9.00145 4.99854 10.624 7 10.624C9.00144 10.624 10.624 9.00144 10.624 7C10.624 4.99854 9.00145 3.376 7 3.37598ZM7 4.60254C8.3243 4.60256 9.39746 5.67569 9.39746 7C9.39744 8.32429 8.32429 9.39744 7 9.39746C5.67569 9.39746 4.60256 8.3243 4.60254 7C4.60254 5.67568 5.67568 4.60254 7 4.60254Z" fill="white"/>
</svg>
