<svg width="32" height="32" viewBox="0 0 32 32" fill="none" xmlns="http://www.w3.org/2000/svg">
<path d="M21.6 4.80005C22.6156 4.79989 23.5932 5.18602 24.3345 5.88011C25.0758 6.5742 25.5254 7.52429 25.592 8.53765L25.6 8.80005V12.88C26.4573 13.0554 27.2336 13.5069 27.8098 14.1655C28.386 14.8241 28.7305 15.6534 28.7904 16.5265L28.8 16.8V26.4C28.8004 26.6 28.7259 26.7928 28.5912 26.9405C28.4565 27.0882 28.2714 27.1802 28.0723 27.1982C27.8732 27.2163 27.6746 27.1592 27.5155 27.0381C27.3564 26.917 27.2484 26.7408 27.2128 26.5441L27.2 26.4V22.4H4.80001V26.4C4.80038 26.6 4.72589 26.7928 4.5912 26.9405C4.45651 27.0882 4.27139 27.1802 4.0723 27.1982C3.8732 27.2163 3.67456 27.1592 3.51548 27.0381C3.35641 26.917 3.24843 26.7408 3.21281 26.5441L3.20001 26.4V16.8C3.19982 15.8779 3.51824 14.9841 4.10137 14.2697C4.6845 13.5554 5.49652 13.0645 6.40001 12.88V8.80005C6.39986 7.7845 6.78598 6.80691 7.48008 6.06558C8.17417 5.32424 9.12425 4.87467 10.1376 4.80805L10.4 4.80005H21.6ZM24.8 14.4H7.20001C6.60365 14.4 6.02865 14.6221 5.58704 15.0228C5.14543 15.4236 4.86886 15.9745 4.81121 16.568L4.80001 16.8V20.8H27.2V16.8C27.2 16.2037 26.978 15.6287 26.5772 15.1871C26.1764 14.7455 25.6256 14.4689 25.032 14.4112L24.8 14.4ZM21.6 6.40005H10.4C9.8034 6.40008 9.22819 6.62232 8.78654 7.02344C8.3449 7.42456 8.06849 7.97579 8.01121 8.56965L8.00001 8.80005V12.8H9.60001V12C9.60001 11.7879 9.6843 11.5844 9.83433 11.4344C9.98436 11.2843 10.1878 11.2 10.4 11.2H14.4C14.6122 11.2 14.8157 11.2843 14.9657 11.4344C15.1157 11.5844 15.2 11.7879 15.2 12V12.8H16.8V12C16.8 11.7879 16.8843 11.5844 17.0343 11.4344C17.1844 11.2843 17.3878 11.2 17.6 11.2H21.6C21.8122 11.2 22.0157 11.2843 22.1657 11.4344C22.3157 11.5844 22.4 11.7879 22.4 12V12.8H24V8.80005C24 8.20369 23.778 7.62868 23.3772 7.18708C22.9764 6.74547 22.4256 6.4689 21.832 6.41125L21.6 6.40005Z" fill="#070707"/>
</svg>
