<svg width="32" height="32" viewBox="0 0 32 32" fill="none" xmlns="http://www.w3.org/2000/svg">
<path d="M26.667 11.4285V5.33325M26.667 5.33325H20.5718M26.667 5.33325L14.4765 17.5237M14.4765 11.4285V17.5237M14.4765 17.5237H20.5718" stroke="#070707" stroke-width="1.1027" stroke-linecap="round" stroke-linejoin="round"/>
<path d="M17.5244 5.33325H8.38151C7.57323 5.33325 6.79806 5.65434 6.22652 6.22588C5.65498 6.79742 5.33389 7.57259 5.33389 8.38087V23.619C5.33389 24.4272 5.65498 25.2024 6.22652 25.774C6.79806 26.3455 7.57323 26.6666 8.38151 26.6666H23.6196C24.4279 26.6666 25.2031 26.3455 25.7746 25.774C26.3461 25.2024 26.6672 24.4272 26.6672 23.619V14.4761" stroke="#070707" stroke-width="1.1027" stroke-linecap="round" stroke-linejoin="round"/>
</svg>
